<?xml version="1.0" encoding="iso-8859-1"?>
<!-- Uploaded to: SVG Repo, www.svgrepo.com, Generator: SVG Repo Mixer Tools -->
<svg fill="#000000" height="800px" width="800px" version="1.1" id="Layer_1" xmlns="http://www.w3.org/2000/svg" xmlns:xlink="http://www.w3.org/1999/xlink" 
	 viewBox="0 0 512 512" xml:space="preserve">
<g>
	<g>
		<path d="M448.531,40.25h-95.819h-48.506h-95.819h-49.101H63.469H0v431.5h512V40.25H448.531z M384.049,71.586h33.147v194.208
			h-33.147V71.586z M239.724,71.586h33.147v194.208h-33.147V71.586z M94.804,71.586h33.147v194.208H94.804V71.586z M95.71,440.414
			H31.336V71.586h32.133v225.544H95.71V440.414z M240.63,440.414H127.046V297.129h32.241V71.586h49.101v225.544h32.241V440.414z
			 M384.954,440.414H271.966V297.129h32.241V71.586h48.506v225.544h32.241V440.414z M480.664,440.414H416.29V297.129h32.241V71.586
			h32.133V440.414z"/>
	</g>
</g>
</svg>